<svg id="PLANT" xmlns="http://www.w3.org/2000/svg" viewBox="0 0 500 500"><defs><style>.cls-1{fill:#9ab3da;}.cls-2{fill:#e9f3ff;}.cls-3{fill:#404b7c;}.cls-4{fill:#f68d88;}.cls-5{fill:#ecbdbb;}.cls-6{fill:#fff;}</style></defs><title>Management</title><path class="cls-1" d="M391.48,404.17l-0.42.37c-15.9,14.26-29.17,14.25-29.17,14.25s-0.58-13.54,15.43-28.51l0.72-.67c16.75-15.23,26.5-18.45,31-13.5S402.83,393.85,391.48,404.17Z"/><path class="cls-2" d="M391.06,404.54c-15.9,14.26-29.17,14.25-29.17,14.25s-0.58-13.54,15.43-28.51c-0.06,4.6,5.14,7.24,18.77-2.58C396.09,387.69,380.78,404.81,391.06,404.54Z"/><path class="cls-3" d="M364.42,417a0.5,0.5,0,0,1-.34-0.87l41.11-37.37a0.5,0.5,0,0,1,.67.74l-41.11,37.37A0.5,0.5,0,0,1,364.42,417Z"/><path class="cls-2" d="M392.79,389.15c-0.12.21-.24,0.42-0.37,0.63-14,23.9-30.34,29.14-30.34,29.14s-6.09-16.48,7.73-41.29c0.2-.37.42-0.74,0.63-1.11,14.63-25.43,25.37-33.28,32.9-28.95S402.7,371.92,392.79,389.15Z"/><path class="cls-1" d="M392.42,389.78c-14,23.9-30.34,29.14-30.34,29.14s-6.09-16.48,7.73-41.29c1.75,5.7,9.21,6.89,22.14-10.63C391.95,367,379.85,394.19,392.42,389.78Z"/><path class="cls-3" d="M364.3,415.57a0.5,0.5,0,0,1-.43-0.75l35.9-62.41a0.5,0.5,0,0,1,.87.5l-35.9,62.41A0.5,0.5,0,0,1,364.3,415.57Z"/><path class="cls-1" d="M328,403.69l0.49,0.4c18.67,15.4,33.68,14.77,33.68,14.77s0-15.36-18.79-31.56l-0.85-.72c-19.67-16.46-30.86-19.66-35.73-13.83S314.71,392.54,328,403.69Z"/><path class="cls-2" d="M328.53,404.1c18.67,15.4,33.68,14.77,33.68,14.77s0-15.36-18.79-31.56c0.28,5.21-5.48,8.43-21.37-2C322,385.26,340.17,403.93,328.53,404.1Z"/><path class="cls-3" d="M359.23,416.87a0.5,0.5,0,0,1-.32-0.12l-48.27-40.39a0.5,0.5,0,1,1,.64-0.77L359.56,416A0.5,0.5,0,0,1,359.23,416.87Z"/><path class="cls-2" d="M326.59,384.72c0.14,0.25.28,0.49,0.42,0.72C343.1,413,361.95,419,361.95,419s7-19-8.9-47.55c-0.24-.43-0.48-0.85-0.72-1.28-16.84-29.28-29.22-38.32-37.89-33.33S315.18,364.88,326.59,384.72Z"/><path class="cls-1" d="M327,385.44C343.1,413,361.95,419,361.95,419s7-19-8.9-47.55c-2,6.57-10.6,7.94-25.49-12.24C327.56,359.22,341.49,390.53,327,385.44Z"/><path class="cls-3" d="M359.4,415.07a0.5,0.5,0,0,1-.43-0.25L317.63,343a0.5,0.5,0,1,1,.87-0.5l41.33,71.86A0.5,0.5,0,0,1,359.4,415.07Z"/><path class="cls-1" d="M376.72,368.66c0,0.3,0,.6,0,0.89C376.48,403.47,362.29,419,362.29,419s-16.54-13.78-17-48.58c0-.52,0-1,0-1.56,0-35.95,6.62-50.85,17.27-50.85S376.72,344.3,376.72,368.66Z"/><path class="cls-2" d="M376.71,369.55C376.48,403.47,362.29,419,362.29,419s-16.54-13.78-17-48.58c5.35,5,14,1.69,17-24.81C362.29,345.65,366.06,381.92,376.71,369.55Z"/><path class="cls-3" d="M362.29,414.1a0.5,0.5,0,0,1-.5-0.5V325.38a0.5,0.5,0,0,1,1,0V413.6A0.5,0.5,0,0,1,362.29,414.1Z"/><path class="cls-4" d="M376.39,468.47H343.47a10.15,10.15,0,0,1-10.14-9.78l-1.42-39.82a3.49,3.49,0,0,1,3.49-3.61h49.06a3.49,3.49,0,0,1,3.49,3.61l-1.42,39.82A10.15,10.15,0,0,1,376.39,468.47Z"/><path class="cls-5" d="M384.46,415.26h-9.61c-0.74,3.22-.52,7.86,5.78,10.05a12.61,12.61,0,0,0,7.08.46l0.25-6.9A3.49,3.49,0,0,0,384.46,415.26Z"/><path class="cls-5" d="M363.12,428.15c-1.28-4.53,1.14-9.72,3.06-12.89H355.63c-6.08,10.18-2.4,28.68,14.12,24.72,8.18-2,13.76-.92,17.42.82l0.28-8C377.92,426.86,365,434.65,363.12,428.15Z"/><path class="cls-5" d="M385,463.67c-8-17.67-22.45-.34-31.93-18.85-6.49-12.67-15.18-12.69-20.63-11l0.31,8.71c16.94-6.62,16.2,21.06,30.61,18.89,7.7-1.16,12.07,2.93,14.47,7A10.13,10.13,0,0,0,385,463.67Z"/><path class="cls-5" d="M340.42,451.92c-4.37,1.09-.24,10.88,3.55,8.28S343.73,451.09,340.42,451.92Z"/><path class="cls-5" d="M376.89,445.22c-3,1.79,2.25,8.12,4.48,5.35S379.16,443.87,376.89,445.22Z"/><rect class="cls-1" x="164.84" y="57.05" width="213.5" height="196.75"/><rect class="cls-3" x="161.59" y="57.05" width="220" height="5.75" rx="2.87" ry="2.87"/><path class="cls-2" d="M299.47,62.8H243.72a2.87,2.87,0,0,1-2.87-2.87V52.67l7.38-7.37H295l7.38,7.38v7.25A2.87,2.87,0,0,1,299.47,62.8Z"/><circle class="cls-6" cx="253.03" cy="54.8" r="2.75"/><circle class="cls-6" cx="290.16" cy="54.8" r="2.75"/><rect class="cls-3" x="161.59" y="248.05" width="220" height="5.75" rx="2.87" ry="2.87"/><rect class="cls-2" x="187.36" y="77.8" width="168.47" height="155.25" rx="3.99" ry="3.99"/><path class="cls-3" d="M228.84,230a0.5,0.5,0,0,1-.5-0.5V79.8a0.5,0.5,0,0,1,1,0V229.55A0.5,0.5,0,0,1,228.84,230Z"/><path class="cls-3" d="M271.59,230a0.5,0.5,0,0,1-.5-0.5V79.8a0.5,0.5,0,0,1,1,0V229.55A0.5,0.5,0,0,1,271.59,230Z"/><path class="cls-3" d="M314.34,230a0.5,0.5,0,0,1-.5-0.5V79.8a0.5,0.5,0,0,1,1,0V229.55A0.5,0.5,0,0,1,314.34,230Z"/><rect class="cls-1" x="194.14" y="94.8" width="27.46" height="4.42" rx="2.21" ry="2.21"/><rect class="cls-1" x="194.14" y="105.38" width="27.46" height="4.42" rx="2.21" ry="2.21"/><rect class="cls-1" x="194.14" y="115.97" width="27.46" height="4.42" rx="2.21" ry="2.21"/><rect class="cls-6" x="233.04" y="150.55" width="27.46" height="4.42" rx="2.21" ry="2.21"/><rect class="cls-6" x="233.04" y="161.13" width="27.46" height="4.42" rx="2.21" ry="2.21"/><rect class="cls-6" x="233.04" y="171.72" width="17.11" height="4.42" rx="2.21" ry="2.21"/><rect class="cls-4" x="321.79" y="194.55" width="27.46" height="4.42" rx="2.21" ry="2.21"/><rect class="cls-4" x="321.79" y="205.13" width="27.46" height="4.42" rx="2.21" ry="2.21"/><rect class="cls-4" x="321.79" y="215.72" width="17.11" height="4.42" rx="2.21" ry="2.21"/><path class="cls-1" d="M256.63,132.55c7-9,6.17-25.75,6.17-25.75H239.23s0.83,16.75-6.17,25.75h23.57Z"/><circle class="cls-3" cx="251.27" cy="105.3" r="4.5"/><path class="cls-4" d="M297.54,182.3c7-9,6.17-25.75,6.17-25.75H280.14S281,173.3,274,182.3h23.57Z"/><circle class="cls-3" cx="292.18" cy="155.05" r="4.5"/><path class="cls-1" d="M320.45,118.59l23-5.5a2.42,2.42,0,0,1,2.9,1.71l7.36,26.7a2.42,2.42,0,0,1-1.77,3l-23,5.5a2.42,2.42,0,0,1-2.9-1.71l-7.36-26.7A2.42,2.42,0,0,1,320.45,118.59Z"/><path class="cls-3" d="M324.85,127.17a0.5,0.5,0,0,1-.12-1l19.31-4.62a0.5,0.5,0,0,1,.23,1L325,127.16h-0.12Z"/><path class="cls-3" d="M326.52,133a0.5,0.5,0,0,1-.12-1l19.31-4.62a0.5,0.5,0,0,1,.23,1L326.64,133h-0.12Z"/><path class="cls-3" d="M328.19,138.84a0.5,0.5,0,0,1-.12-1L339.95,135a0.5,0.5,0,0,1,.23,1l-11.87,2.84h-0.12Z"/><circle class="cls-3" cx="332.22" cy="115.01" r="4.5"/><path class="cls-1" d="M223.64,197.09l-23-5.5a2.42,2.42,0,0,0-2.9,1.71L190.43,220a2.42,2.42,0,0,0,1.77,3l23,5.5a2.42,2.42,0,0,0,2.9-1.71l7.36-26.7A2.42,2.42,0,0,0,223.64,197.09Z"/><path class="cls-3" d="M219.23,205.67h-0.12L199.8,201a0.5,0.5,0,0,1,.23-1l19.31,4.63A0.5,0.5,0,0,1,219.23,205.67Z"/><path class="cls-3" d="M217.56,211.51h-0.12l-19.31-4.62a0.5,0.5,0,0,1,.23-1l19.31,4.63A0.5,0.5,0,0,1,217.56,211.51Z"/><path class="cls-3" d="M215.9,217.34h-0.12l-11.87-2.84a0.5,0.5,0,1,1,.23-1L216,216.35A0.5,0.5,0,0,1,215.9,217.34Z"/><circle class="cls-3" cx="211.86" cy="193.51" r="4.5"/><circle class="cls-3" cx="331.01" cy="164.55" r="2.83"/><circle class="cls-4" cx="342.43" cy="171.8" r="4"/><circle class="cls-4" cx="247.78" cy="200.36" r="11.44"/><circle class="cls-3" cx="262.03" cy="216.36" r="4.81"/><path class="cls-4" d="M293.5,105.32l3.37,6.82,7.53,1.09a1.84,1.84,0,0,1,1,3.14L300,121.69l1.29,7.49a1.84,1.84,0,0,1-2.67,1.94l-6.73-3.54-6.73,3.54a1.84,1.84,0,0,1-2.67-1.94l1.29-7.49-5.45-5.31a1.84,1.84,0,0,1,1-3.14l7.53-1.09,3.37-6.82A1.84,1.84,0,0,1,293.5,105.32Z"/><path class="cls-3" d="M360.26,282.52a0.5,0.5,0,0,1-.15-1s0.68-.21,1.85-0.67a0.5,0.5,0,1,1,.36.93c-1.2.47-1.88,0.68-1.91,0.69Z"/><path class="cls-3" d="M366.87,279.76a0.5,0.5,0,0,1-.22-1c1.52-.73,3-1.54,4.55-2.39a0.5,0.5,0,1,1,.49.87c-1.52.86-3.07,1.68-4.61,2.42A0.5,0.5,0,0,1,366.87,279.76Z"/><path class="cls-3" d="M374.12,275.77a0.5,0.5,0,0,1-.26-0.92c1.16-.72,2.32-1.48,3.45-2.25a0.5,0.5,0,1,1,.57.82c-1.14.78-2.31,1.55-3.49,2.28A0.5,0.5,0,0,1,374.12,275.77Zm7.64-5.33a0.5,0.5,0,0,1-.31-0.89c1.34-1.06,2.67-2.17,3.94-3.3a0.5,0.5,0,0,1,.67.75c-1.29,1.15-2.63,2.27-4,3.34A0.5,0.5,0,0,1,381.76,270.44ZM388,265a0.5,0.5,0,0,1-.35-0.86c1-1,2-2,2.88-2.93a0.5,0.5,0,0,1,.73.68c-0.93,1-1.91,2-2.92,3A0.5,0.5,0,0,1,388,265Zm6.3-6.85a0.5,0.5,0,0,1-.39-0.82c1.08-1.32,2.13-2.7,3.11-4.09a0.5,0.5,0,0,1,.82.58c-1,1.41-2.06,2.8-3.15,4.15A0.5,0.5,0,0,1,394.31,258.15Zm4.87-6.69a0.5,0.5,0,0,1-.42-0.77c0.74-1.14,1.46-2.32,2.14-3.51a0.5,0.5,0,1,1,.87.5c-0.69,1.2-1.42,2.4-2.17,3.56A0.5,0.5,0,0,1,399.19,251.46Zm4.58-8.11a0.5,0.5,0,0,1-.45-0.72c0.75-1.53,1.45-3.11,2.09-4.69a0.5,0.5,0,1,1,.93.38c-0.65,1.6-1.36,3.2-2.12,4.76A0.5,0.5,0,0,1,403.76,243.36Zm3.22-7.62a0.49,0.49,0,0,1-.17,0,0.5,0.5,0,0,1-.3-0.64c0.46-1.27.9-2.58,1.3-3.9a0.5,0.5,0,0,1,1,.29c-0.41,1.33-.85,2.66-1.31,4A0.5,0.5,0,0,1,407,235.73Zm2.66-8.92h-0.12a0.5,0.5,0,0,1-.37-0.6c0.39-1.64.74-3.34,1-5a0.5,0.5,0,1,1,1,.17c-0.3,1.72-.66,3.43-1.05,5.09A0.5,0.5,0,0,1,409.63,226.81Zm1.53-8.13H411.1a0.5,0.5,0,0,1-.42-0.56c0.19-1.34.35-2.71,0.49-4.09a0.51,0.51,0,0,1,.55-0.45,0.5,0.5,0,0,1,.45.55c-0.14,1.39-.3,2.78-0.49,4.13A0.5,0.5,0,0,1,411.17,218.68Zm0.85-9.27h0a0.5,0.5,0,0,1-.48-0.52c0.07-1.58.11-3.2,0.11-4.8v-0.34a0.5,0.5,0,0,1,.5-0.5h0a0.5,0.5,0,0,1,.5.5v0.35c0,1.62,0,3.25-.11,4.85A0.5,0.5,0,0,1,412,209.41Zm0.05-8.28a0.5,0.5,0,0,1-.5-0.48c0-1.35-.11-2.74-0.2-4.12a0.5,0.5,0,0,1,.47-0.53,0.49,0.49,0,0,1,.53.47c0.09,1.39.16,2.79,0.2,4.15a0.5,0.5,0,0,1-.48.52h0Zm-0.65-9.29a0.5,0.5,0,0,1-.5-0.45c-0.18-1.68-.4-3.41-0.65-5.12a0.5,0.5,0,0,1,1-.14c0.25,1.72.47,3.46,0.65,5.15a0.5,0.5,0,0,1-.44.55h-0.05Zm-1.13-8.2a0.5,0.5,0,0,1-.49-0.42q-0.34-2-.74-4.06a0.5,0.5,0,1,1,1-.19q0.41,2.07.75,4.09a0.5,0.5,0,0,1-.41.58H410.3Zm-1.82-9.14a0.5,0.5,0,0,1-.49-0.39c-0.38-1.65-.79-3.33-1.23-5a0.5,0.5,0,1,1,1-.25c0.44,1.69.86,3.38,1.24,5a0.5,0.5,0,0,1-.38.6h-0.11Z"/><path class="cls-3" d="M406.42,166.44a0.5,0.5,0,0,1-.48-0.37q-0.27-1-.55-1.92a0.5,0.5,0,0,1,.11-0.48s0.48-.53,1.27-1.5a0.5,0.5,0,1,1,.77.63c-0.52.64-.91,1.09-1.12,1.33q0.24,0.83.47,1.66a0.5,0.5,0,0,1-.35.62Z"/><path class="cls-3" d="M410.36,158.83A0.5,0.5,0,0,1,410,158c1-1.4,2-2.85,2.94-4.31a0.5,0.5,0,1,1,.84.54c-1,1.48-2,2.95-3,4.36A0.5,0.5,0,0,1,410.36,158.83Z"/><path class="cls-3" d="M415,151.83a0.5,0.5,0,0,1-.43-0.76c0.72-1.19,1.42-2.41,2.08-3.62a0.5,0.5,0,0,1,.88.48c-0.67,1.23-1.38,2.46-2.1,3.66A0.5,0.5,0,0,1,415,151.83Zm4.47-8.32a0.49,0.49,0,0,1-.21,0,0.5,0.5,0,0,1-.24-0.67c0.75-1.59,1.45-3.19,2.09-4.78a0.5,0.5,0,1,1,.93.37c-0.64,1.6-1.35,3.23-2.11,4.84A0.5,0.5,0,0,1,419.45,143.51Zm3.21-7.75a0.5,0.5,0,0,1-.47-0.67c0.47-1.32.9-2.66,1.28-4a0.5,0.5,0,1,1,1,.28c-0.39,1.33-.83,2.68-1.3,4A0.5,0.5,0,0,1,422.66,135.76Zm2.57-9.08h-0.1a0.5,0.5,0,0,1-.39-0.59c0.36-1.72.65-3.45,0.85-5.13a0.52,0.52,0,0,1,.56-0.44,0.5,0.5,0,0,1,.44.56c-0.21,1.72-.5,3.47-0.86,5.22A0.5,0.5,0,0,1,425.24,126.67Zm1.15-8.31h0a0.5,0.5,0,0,1-.47-0.53c0.08-1.16.11-2.32,0.11-3.45v-0.71a0.5,0.5,0,0,1,.49-0.51,0.52,0.52,0,0,1,.51.49v0.72c0,1.16,0,2.34-.11,3.52A0.5,0.5,0,0,1,426.39,118.37Zm-0.24-9.43a0.5,0.5,0,0,1-.5-0.44,48.58,48.58,0,0,0-.89-5.11,0.5,0.5,0,1,1,1-.22,49.05,49.05,0,0,1,.91,5.22,0.5,0.5,0,0,1-.44.56h-0.06Zm-1.7-8.21a0.5,0.5,0,0,1-.48-0.36c-0.4-1.32-.86-2.64-1.37-3.92a0.5,0.5,0,1,1,.93-0.37c0.52,1.31,1,2.65,1.4,4a0.5,0.5,0,0,1-.33.62ZM420.86,92a0.5,0.5,0,0,1-.44-0.27c-0.8-1.51-1.69-3-2.65-4.46a0.5,0.5,0,0,1,.83-0.55c1,1.48,1.89,3,2.7,4.55a0.5,0.5,0,0,1-.21.68A0.49,0.49,0,0,1,420.86,92Zm-4.49-7.08a0.5,0.5,0,0,1-.4-0.2c-0.81-1.09-1.69-2.18-2.61-3.24a0.5,0.5,0,0,1,.76-0.65c0.93,1.08,1.82,2.19,2.65,3.3A0.5,0.5,0,0,1,416.37,84.94Zm-6.21-7.1a0.5,0.5,0,0,1-.35-0.15c-1.2-1.19-2.49-2.38-3.83-3.53a0.5,0.5,0,1,1,.65-0.76c1.36,1.17,2.66,2.37,3.88,3.58A0.5,0.5,0,0,1,410.16,77.83Zm-6.28-5.56a0.5,0.5,0,0,1-.31-0.11c-1.07-.85-2.19-1.7-3.33-2.52a0.5,0.5,0,0,1,.59-0.81c1.15,0.83,2.28,1.69,3.36,2.55A0.5,0.5,0,0,1,403.88,72.27Zm-7.68-5.49a0.5,0.5,0,0,1-.27-0.08c-1.43-.92-2.93-1.84-4.46-2.72a0.5,0.5,0,0,1,.5-0.87c1.54,0.9,3.05,1.82,4.49,2.75A0.5,0.5,0,0,1,396.21,66.78Z"/><path class="cls-3" d="M388.94,62.48a0.5,0.5,0,0,1-.24-0.06l-1.76-.94a0.5,0.5,0,1,1,.46-0.88l1.77,0.95A0.5,0.5,0,0,1,388.94,62.48Z"/><circle class="cls-4" cx="405.87" cy="164.02" r="5.85" transform="matrix(0.02, -1, 1, 0.02, 232.72, 566.08)"/><circle class="cls-4" cx="360.26" cy="282.02" r="5.85" transform="translate(70.16 635.8) rotate(-88.7)"/><circle class="cls-2" cx="387.18" cy="61.38" r="34.67"/><circle class="cls-3" cx="387.18" cy="61.38" r="27.83"/><circle class="cls-6" cx="387.18" cy="61.38" r="1.96"/><rect class="cls-6" x="385.93" y="36.38" width="2.5" height="6.17"/><rect class="cls-6" x="401.43" y="42.8" width="2.5" height="6.17" transform="translate(150.39 -271.29) rotate(45)"/><rect class="cls-6" x="407.84" y="58.3" width="2.5" height="6.17" transform="translate(470.48 -347.71) rotate(90)"/><rect class="cls-6" x="401.43" y="73.8" width="2.5" height="6.17" transform="translate(741.77 -153.49) rotate(135)"/><rect class="cls-6" x="385.93" y="80.22" width="2.5" height="6.17" transform="translate(774.36 166.6) rotate(180)"/><rect class="cls-6" x="370.43" y="73.8" width="2.5" height="6.17" transform="translate(580.14 394.06) rotate(-135)"/><rect class="cls-6" x="364.01" y="58.3" width="2.5" height="6.17" transform="translate(303.88 426.64) rotate(-90)"/><rect class="cls-6" x="370.43" y="42.8" width="2.5" height="6.17" transform="translate(76.42 276.26) rotate(-45)"/><path class="cls-6" d="M387.76,45h-1.17L386,60.13a1.2,1.2,0,0,0,1.2,1.25h0a1.2,1.2,0,0,0,1.2-1.25Z"/><path class="cls-6" d="M375.16,72.58L376,73.4l11.16-10.29a1.2,1.2,0,0,0,0-1.73h0a1.2,1.2,0,0,0-1.73,0Z"/><rect class="cls-4" x="277.23" y="244.39" width="57.48" height="75.25" rx="6.44" ry="6.44"/><rect class="cls-6" x="300.45" y="254.14" width="26.82" height="2.5" rx="1.25" ry="1.25"/><rect class="cls-6" x="284.66" y="250.33" width="10.13" height="10.13" rx="2.91" ry="2.91"/><polygon class="cls-3" points="287.54 253.08 285.97 254.64 289.85 258.52 299.1 250.83 290.35 256.08 287.54 253.08"/><rect class="cls-6" x="300.45" y="271.89" width="26.82" height="2.5" rx="1.25" ry="1.25"/><rect class="cls-6" x="284.66" y="268.08" width="10.13" height="10.13" rx="2.91" ry="2.91"/><rect class="cls-6" x="300.45" y="289.64" width="26.82" height="2.5" rx="1.25" ry="1.25"/><rect class="cls-6" x="284.66" y="285.83" width="10.13" height="10.13" rx="2.91" ry="2.91"/><rect class="cls-6" x="300.45" y="307.39" width="26.82" height="2.5" rx="1.25" ry="1.25"/><rect class="cls-6" x="284.66" y="303.58" width="10.13" height="10.13" rx="2.91" ry="2.91"/><rect class="cls-1" x="212.23" y="293.18" width="41.67" height="54.55" rx="5.68" ry="5.68"/><rect class="cls-6" x="229.07" y="300.25" width="19.45" height="1.81" rx="0.83" ry="0.83"/><rect class="cls-6" x="217.62" y="297.49" width="7.34" height="7.34" rx="2.14" ry="2.14"/><rect class="cls-6" x="229.07" y="313.12" width="19.45" height="1.81" rx="0.83" ry="0.83"/><rect class="cls-6" x="217.62" y="310.35" width="7.34" height="7.34" rx="2.14" ry="2.14"/><rect class="cls-6" x="229.07" y="325.99" width="19.45" height="1.81" rx="0.83" ry="0.83"/><rect class="cls-6" x="217.62" y="323.22" width="7.34" height="7.34" rx="2.14" ry="2.14"/><rect class="cls-6" x="229.07" y="338.85" width="19.45" height="1.81" rx="0.83" ry="0.83"/><rect class="cls-6" x="217.62" y="336.09" width="7.34" height="7.34" rx="2.14" ry="2.14"/><circle class="cls-2" cx="104.08" cy="77.44" r="3.66"/><circle class="cls-2" cx="90.26" cy="82.94" r="1.81"/><circle class="cls-2" cx="416.32" cy="305.7" r="5.65"/><circle class="cls-2" cx="401.04" cy="298.61" r="2.8"/><circle class="cls-2" cx="239.28" cy="399.92" r="5.65"/><circle class="cls-2" cx="224" cy="392.82" r="2.8"/><path class="cls-4" d="M117.84,144.64c-12.41,1.85-24,45.17-27.75,57.17s-1.25,38.83-1.25,38.83,9.75,4.75,14-.5c0,0,4-26.08,8.75-39.33s11.75-23.75,15.25-36.25S127.34,143.22,117.84,144.64Z"/><path class="cls-1" d="M85.47,239.93L86,250.55a15.48,15.48,0,0,0,10.63,2.25c6.37-.87,8.62-3.87,8.62-3.87l0.13-9.75S97.47,234.3,85.47,239.93Z"/><polygon class="cls-1" points="79.51 230.47 77.34 263.64 112.51 252.72 115.68 219.97 79.51 230.47"/><polygon class="cls-3" points="77.34 263.64 74.01 262.55 76.18 229.39 79.51 230.47 77.34 263.64"/><polygon class="cls-2" points="115.68 219.97 112.34 218.89 76.18 229.39 79.51 230.47 115.68 219.97"/><path class="cls-5" d="M83.53,261.62s0.19,3.13,2.56,4a5.16,5.16,0,0,0,4.31-.37,5.43,5.43,0,0,0,4.75-.81s2.63,0.88,3.94-.81c0,0,3.25.75,4.25-2.25s1.25-7.25-.06-8.19-2.22,1.16-2.22,1.16a2,2,0,0,0-3.28-.06s-1.84-1.78-3.78.53c0,0-1.22-1.75-2.78-.62s-2.41,5.58-2.59,6Z"/><path class="cls-3" d="M92.28,263a0.5,0.5,0,0,1-.23-0.06,0.5,0.5,0,0,1-.21-0.67,19.84,19.84,0,0,0,1.66-6.61,0.5,0.5,0,0,1,1,.06,20.53,20.53,0,0,1-1.77,7A0.5,0.5,0,0,1,92.28,263Z"/><path class="cls-3" d="M96,262.77a0.5,0.5,0,0,1-.22,0,0.5,0.5,0,0,1-.23-0.67,20.91,20.91,0,0,0,1.64-6.6,0.51,0.51,0,0,1,.53-0.47,0.5,0.5,0,0,1,.47.53,21.57,21.57,0,0,1-1.74,7A0.5,0.5,0,0,1,96,262.77Z"/><path class="cls-3" d="M99.62,262.18a0.5,0.5,0,0,1-.44-0.75c1.06-1.88,1.31-5.87,1.31-5.91a0.51,0.51,0,0,1,.53-0.47,0.5,0.5,0,0,1,.47.53c0,0.17-.27,4.26-1.44,6.34A0.5,0.5,0,0,1,99.62,262.18Z"/><polygon class="cls-5" points="93.01 431.14 90.44 440.41 87.18 452.14 78.01 452.14 79.15 439.28 79.85 431.47 93.01 431.14"/><polygon class="cls-3" points="79.85 431.47 93.01 431.14 90.44 440.41 79.15 439.28 79.85 431.47"/><path class="cls-3" d="M72.34,468.47c-0.08-.33,1.42-12,4.92-19.17a68.59,68.59,0,0,0,11.42.33s9.42,7.17,17.75,10.33,10.17,4.42,9.92,8.5h-44Z"/><path class="cls-1" d="M102.84,249.3s-26,71.5-37,186.5h46.5s8-84.5,27-140.5l9.25-41.75C153.68,220,115.68,214.3,102.84,249.3Z"/><path class="cls-3" d="M111.85,281.18c-1.51,0-8.51-5.77-9.21-7.29s2-12.57,2.77-15.95a0.5,0.5,0,0,1,.58-0.37,161.72,161.72,0,0,0,20,2.24,0.5,0.5,0,0,1,.47.59c-0.47,2.49-2.81,15-3.07,15.59C123,277.07,112.81,281.18,111.85,281.18Zm-5.57-22.55c-1.6,6.72-3,14-2.72,14.85,0.57,1.25,7.24,6.64,8.3,6.7s9.74-3.8,10.68-4.62c0.26-.92,1.81-9.06,2.89-14.78A163.78,163.78,0,0,1,106.27,258.63Z"/><path class="cls-3" d="M101.84,431.8h-0.06a0.5,0.5,0,0,1-.44-0.55c7.42-62.81,26.32-134.6,26.51-135.32a0.5,0.5,0,0,1,1,.26c-0.19.72-19.08,72.44-26.49,135.18A0.5,0.5,0,0,1,101.84,431.8Z"/><polygon class="cls-5" points="167.06 431.14 166 441.07 164.81 452.14 155.65 452.14 154.59 439.3 153.95 431.47 167.06 431.14"/><polygon class="cls-3" points="167.06 431.14 166 441.07 154.59 439.3 153.95 431.47 167.06 431.14"/><path class="cls-3" d="M150,468.47c-0.08-.33,1.42-12,4.92-19.17a68.59,68.59,0,0,0,11.42.33s9.42,7.17,17.75,10.33,10.17,4.42,9.92,8.5H150Z"/><path class="cls-1" d="M131.34,254.81s-6.83,25.87,2.42,50c2.13,44.74,5,106.89,5.58,131h52.56s2.37-123.89-9.87-183.21S126.84,215.31,131.34,254.81Z"/><path class="cls-3" d="M133.76,305.3a0.5,0.5,0,0,1-.47-0.34c-5.61-16.89-6.23-29.55-2.45-50.17a51,51,0,0,1-.32-6.49,0.5,0.5,0,0,1,1,0,50.11,50.11,0,0,0,.32,6.44,0.49,0.49,0,0,1,0,.15c-3.76,20.47-3.15,33,2.4,49.74a0.5,0.5,0,0,1-.32.63Z"/><path class="cls-3" d="M160.23,282.81c-2,0-10.56-3.38-11.56-4.62s-1.93-13.68-2.2-17.48a0.5,0.5,0,0,1,.14-0.39,0.46,0.46,0,0,1,.39-0.15c0.11,0,11.28.64,20.84-1.43a0.5,0.5,0,0,1,.6.46c0.17,2.73,1,16.36.9,17-0.15,1.14-8,6.33-8.87,6.54A1,1,0,0,1,160.23,282.81ZM147.51,261.2c0.55,7.46,1.4,15.58,1.95,16.36,0.79,1,9.65,4.49,10.77,4.25s7.47-4.84,8.13-5.76c0-1-.49-9.94-0.87-16.21A91.48,91.48,0,0,1,147.51,261.2Z"/><path class="cls-3" d="M146.51,295.47h0c-15.14-1.15-25.36-1.17-25.46-1.17a0.5,0.5,0,0,1,0-1c0.1,0,10.36,0,25.54,1.17A0.5,0.5,0,0,1,146.51,295.47Z"/><path class="cls-3" d="M179.34,430.3h-0.05a0.5,0.5,0,0,1-.45-0.55c6.92-66.68-3.4-172.09-3.5-173.15a0.5,0.5,0,0,1,1-.1c0.1,1.06,10.42,106.57,3.5,173.35A0.5,0.5,0,0,1,179.34,430.3Z"/><path class="cls-4" d="M145.43,143.72s2.17-5.67,3.08-7.58a68.28,68.28,0,0,0-19.08-.67l3,8.25h13Z"/><path class="cls-4" d="M117.84,144.64s19.83-6.83,43.33,1.83c0,0,20.17,61.33,24.67,105.33,0,0-42.25,10-87.75.5C98.09,252.3,101.84,170.3,117.84,144.64Z"/><path class="cls-5" d="M145.83,143.19h-0.07a71.93,71.93,0,0,0-16.52-.25,0.5,0.5,0,1,1-.1-1,73,73,0,0,1,16.75.25A0.5,0.5,0,0,1,145.83,143.19Z"/><path class="cls-5" d="M100.84,218.4h-0.05a0.5,0.5,0,0,1-.44-0.55c2.7-25.36,7.86-58.69,17.08-73.47a0.5,0.5,0,1,1,.85.53C109.15,159.52,104,192.7,101.34,218A0.5,0.5,0,0,1,100.84,218.4Z"/><path class="cls-5" d="M178.8,248.8a0.5,0.5,0,0,1-.5-0.44c-3.25-26.16-11.36-54.4-11.44-54.68a0.5,0.5,0,0,1,1-.28c0.08,0.28,8.21,28.6,11.47,54.83a0.5,0.5,0,0,1-.43.56H178.8Z"/><path class="cls-5" d="M203,168.05l4.75-8.5s-2-10.25-2.08-11.83,4.58-6.58,5.08-7,5.67-.5,5.67-0.5a5.7,5.7,0,0,1,2.6-.45,1.09,1.09,0,0,1,1.06,1.09s2.22-.59,2.28,1.06a2.21,2.21,0,0,1,.59,0,1.25,1.25,0,0,1,.47,2.22c-1.12.84-3.15,2.36-3.24,2.52s-4.12,6.31-4.19,6.56-0.84,7.22-1.25,8.63S210.26,173,210.26,173Z"/><path class="cls-3" d="M209,145.68a0.5,0.5,0,0,1-.32-0.89c0.16-.14,4.06-3.34,6.27-4.18a0.5,0.5,0,1,1,.35.94c-2.05.77-5.94,4-6,4A0.5,0.5,0,0,1,209,145.68Z"/><path class="cls-3" d="M211.59,146.68a0.5,0.5,0,0,1-.3-0.9,58.27,58.27,0,0,1,7.09-4.59,0.5,0.5,0,1,1,.41.91,59,59,0,0,0-6.91,4.48A0.5,0.5,0,0,1,211.59,146.68Z"/><path class="cls-3" d="M216,146.65a0.5,0.5,0,0,1-.33-0.88,30.19,30.19,0,0,1,5.77-3.86,0.5,0.5,0,0,1,.42.91,29.72,29.72,0,0,0-5.54,3.71A0.5,0.5,0,0,1,216,146.65Z"/><path class="cls-1" d="M196.51,177.39c-0.25-.42-1-4.08-0.67-4.92a37.3,37.3,0,0,1,5.75-6.33c0.92-.5,10.67,3.08,12.08,10.42,0,0-2.75,6.33-3.33,6.67s-6.08.17-9.42-1.58A9.88,9.88,0,0,1,196.51,177.39Z"/><path class="cls-4" d="M198.51,172.64l-7.33,8.17s-16.83-27.17-30-34.33c0,0-4.33-2.83-5.33,12.67s4.5,26,4.5,26,22,20,29.33,21.17,13.83-11.83,18.67-25.67C206,176.3,202.93,173.29,198.51,172.64Z"/><path class="cls-5" d="M174.34,197.43a0.5,0.5,0,0,1-.31-0.11c-7.19-5.62-14-11.76-14-11.82a0.51,0.51,0,0,1-.11-0.14c-0.06-.11-5.55-10.8-4.56-26.26,0.34-5.29,1.11-9.06,2.28-11.21a0.5,0.5,0,0,1,.88.48c-1.1,2-1.83,5.65-2.16,10.79a53.45,53.45,0,0,0,4.41,25.66c0.73,0.66,7.13,6.42,13.9,11.71A0.5,0.5,0,0,1,174.34,197.43Z"/><path class="cls-5" d="M196.72,189.37a0.5,0.5,0,0,1-.45-0.28,54.07,54.07,0,0,0-4.76-7.1,0.5,0.5,0,0,1,.78-0.62,53.82,53.82,0,0,1,4.87,7.27A0.5,0.5,0,0,1,196.72,189.37Z"/><path class="cls-5" d="M144.26,110.3c9.25-.18,10.25,9.67,7.33,16.83s-8.92,4.5-12.42-.42S135.84,110.47,144.26,110.3Z"/><path class="cls-3" d="M147.16,122.37l1.88,0.06a19.71,19.71,0,0,0,1.25-3.75,36,36,0,0,0,2.63,2.81c0.19,0,5.94-5.19,6.31-6.75S153.09,102,146.09,100.8s-19.87,7.75-20.5,9.63-0.44,7.5-1,9.13-10.56,3.56-12.75,6.88-1.56,8.31-.12,12.63-3.5,6.25-9.25,9-9.87,15.25,3.38,22.75,35-2.74,37.88-14.25c2.21-8.83.89-12.24-.44-16.82s5.65-.69,1.57-12.18c-2.16-6.09,1.42-8.17,1.42-8.17Z"/><path class="cls-5" d="M147.67,122.85a5.88,5.88,0,0,0-.24-5.37,2.53,2.53,0,0,0-2.39-1.43c-2.94.25-2.19,6.5,2.22,7.75Z"/><path class="cls-3" d="M146.62,122.18h-0.09a0.5,0.5,0,0,1-.4-0.58s0.51-2.79-1-3.37a0.5,0.5,0,1,1,.35-0.94c2.33,0.87,1.7,4.34,1.67,4.49A0.5,0.5,0,0,1,146.62,122.18Z"/><path class="cls-3" d="M145,120.5a0.5,0.5,0,0,1-.41-0.79,3.36,3.36,0,0,1,1.77-1.17,0.5,0.5,0,0,1,.25,1,2.36,2.36,0,0,0-1.21.79A0.5,0.5,0,0,1,145,120.5Z"/><path class="cls-3" d="M138.18,110.3c2.6-4.4-.33-12.66-7-12.33a11.26,11.26,0,0,0-10.58,12.33C121.09,116.47,132.18,120.47,138.18,110.3Z"/><path class="cls-1" d="M128.63,117a9.91,9.91,0,0,1-1.53-.12,0.5,0.5,0,0,1,.15-1c4,0.63,8-1.56,10.5-5.86a7.84,7.84,0,0,0,.5-6,0.5,0.5,0,0,1,1-.28,8.84,8.84,0,0,1-.6,6.83C136.17,114.69,132.52,117,128.63,117Z"/></svg>